<svg width="18" height="22" viewBox="0 0 18 22" fill="none" xmlns="http://www.w3.org/2000/svg">
<path fill-rule="evenodd" clip-rule="evenodd" d="M13.272 9.27222C13.272 10.3331 12.8505 11.3505 12.1004 12.1006C11.3503 12.8508 10.3328 13.2722 9.27197 13.2722C8.21111 13.2722 7.19369 12.8508 6.44355 12.1006C5.6934 11.3505 5.27197 10.3331 5.27197 9.27222C5.27197 8.21135 5.6934 7.19394 6.44355 6.44379C7.19369 5.69364 8.21111 5.27222 9.27197 5.27222C10.3328 5.27222 11.3503 5.69364 12.1004 6.44379C12.8505 7.19394 13.272 8.21135 13.272 9.27222ZM11.272 9.27222C11.272 9.80265 11.0613 10.3114 10.6862 10.6864C10.3111 11.0615 9.80241 11.2722 9.27197 11.2722C8.74154 11.2722 8.23283 11.0615 7.85776 10.6864C7.48269 10.3114 7.27197 9.80265 7.27197 9.27222C7.27197 8.74178 7.48269 8.23308 7.85776 7.858C8.23283 7.48293 8.74154 7.27222 9.27197 7.27222C9.80241 7.27222 10.3111 7.48293 10.6862 7.858C11.0613 8.23308 11.272 8.74178 11.272 9.27222Z" fill="black"/>
<path fill-rule="evenodd" clip-rule="evenodd" d="M2.794 15.5181C1.50484 14.2907 0.608609 12.7085 0.218639 10.9717C-0.17133 9.23492 -0.0375212 7.42149 0.603146 5.76074C1.24381 4.1 2.36256 2.66652 3.81792 1.6416C5.27328 0.61668 6.99988 0.0463399 8.77938 0.00270542C10.5589 -0.040929 12.3114 0.444102 13.8152 1.39646C15.3191 2.34882 16.5067 3.72574 17.228 5.35309C17.9493 6.98044 18.1718 8.78514 17.8675 10.539C17.5631 12.2928 16.7455 13.917 15.518 15.2061L9.31201 21.7241L2.794 15.5181ZM14.07 13.8271L9.243 18.8971L4.173 14.0701C3.17037 13.1154 2.47334 11.8849 2.17005 10.5341C1.86676 9.18326 1.97084 7.77285 2.46912 6.48119C2.9674 5.18953 3.8375 4.07462 4.96941 3.27746C6.10131 2.4803 7.44418 2.03668 8.8282 2.00269C10.2122 1.96871 11.5752 2.3459 12.7449 3.08655C13.9146 3.8272 14.8383 4.89806 15.3994 6.16371C15.9605 7.42936 16.1336 8.83297 15.897 10.197C15.6604 11.5611 15.0246 12.8244 14.07 13.8271Z" fill="black"/>
</svg>
